<svg width="50" height="50" viewBox="0 0 50 50" fill="none" xmlns="http://www.w3.org/2000/svg">
<g filter="url(#filter0_d_627_1917)">
<path d="M18.5303 31.0605C26.2789 31.0605 32.5605 24.7789 32.5605 17.0303C32.5605 9.28156 26.2789 3 18.5303 3C10.7816 3 4.5 9.28156 4.5 17.0303C4.5 24.7789 10.7816 31.0605 18.5303 31.0605Z" stroke="black" stroke-linecap="round" stroke-linejoin="round" shape-rendering="crispEdges"/>
<path d="M18.5303 31.0605C26.2789 31.0605 32.5605 24.7789 32.5605 17.0303C32.5605 9.28156 26.2789 3 18.5303 3C10.7816 3 4.5 9.28156 4.5 17.0303C4.5 24.7789 10.7816 31.0605 18.5303 31.0605Z" stroke="#ACAFB2" stroke-linecap="round" stroke-linejoin="round" shape-rendering="crispEdges"/>
</g>
<g filter="url(#filter1_d_627_1917)">
<path d="M28.4531 26.9526L30.0857 28.5852M30.0857 28.5852V32.6705L40.4987 43.0835L44.584 38.9982L34.171 28.5852H30.0857Z" stroke="black" stroke-linecap="round" stroke-linejoin="round" shape-rendering="crispEdges"/>
<path d="M28.4531 26.9526L30.0857 28.5852M30.0857 28.5852V32.6705L40.4987 43.0835L44.584 38.9982L34.171 28.5852H30.0857Z" stroke="#ACAFB2" stroke-linecap="round" stroke-linejoin="round" shape-rendering="crispEdges"/>
</g>
<defs>
<filter id="filter0_d_627_1917" x="0" y="0.5" width="37.0605" height="37.0605" filterUnits="userSpaceOnUse" color-interpolation-filters="sRGB">
<feFlood flood-opacity="0" result="BackgroundImageFix"/>
<feColorMatrix in="SourceAlpha" type="matrix" values="0 0 0 0 0 0 0 0 0 0 0 0 0 0 0 0 0 0 127 0" result="hardAlpha"/>
<feOffset dy="2"/>
<feGaussianBlur stdDeviation="2"/>
<feComposite in2="hardAlpha" operator="out"/>
<feColorMatrix type="matrix" values="0 0 0 0 0 0 0 0 0 0 0 0 0 0 0 0 0 0 0.07 0"/>
<feBlend mode="normal" in2="BackgroundImageFix" result="effect1_dropShadow_627_1917"/>
<feBlend mode="normal" in="SourceGraphic" in2="effect1_dropShadow_627_1917" result="shape"/>
</filter>
<filter id="filter1_d_627_1917" x="23.9531" y="24.4526" width="25.1309" height="25.1309" filterUnits="userSpaceOnUse" color-interpolation-filters="sRGB">
<feFlood flood-opacity="0" result="BackgroundImageFix"/>
<feColorMatrix in="SourceAlpha" type="matrix" values="0 0 0 0 0 0 0 0 0 0 0 0 0 0 0 0 0 0 127 0" result="hardAlpha"/>
<feOffset dy="2"/>
<feGaussianBlur stdDeviation="2"/>
<feComposite in2="hardAlpha" operator="out"/>
<feColorMatrix type="matrix" values="0 0 0 0 0 0 0 0 0 0 0 0 0 0 0 0 0 0 0.07 0"/>
<feBlend mode="normal" in2="BackgroundImageFix" result="effect1_dropShadow_627_1917"/>
<feBlend mode="normal" in="SourceGraphic" in2="effect1_dropShadow_627_1917" result="shape"/>
</filter>
</defs>
</svg>
