<svg width="24" height="25" viewBox="0 0 24 25" fill="none" xmlns="http://www.w3.org/2000/svg">
<path fill-rule="evenodd" clip-rule="evenodd" d="M21.625 3.375H12.875V1.625C12.875 1.14175 12.4832 0.75 12 0.75C11.5168 0.75 11.125 1.14175 11.125 1.625V3.375H2.375C1.4085 3.375 0.625 4.1585 0.625 5.125V18.25C0.625 19.2165 1.4085 20 2.375 20H6.68L4.31641 22.9531C4.01438 23.3307 4.07559 23.8816 4.45312 24.1836C4.83066 24.4856 5.38156 24.4244 5.68359 24.0469L8.92 20H15.08L18.3164 24.0469C18.6184 24.4244 19.1693 24.4856 19.5469 24.1836C19.9244 23.8816 19.9856 23.3307 19.6836 22.9531L17.32 20H21.625C22.5915 20 23.375 19.2165 23.375 18.25V5.125C23.375 4.1585 22.5915 3.375 21.625 3.375ZM21.625 18.25H2.375V5.125H21.625V18.25ZM9.375 12.125V14.75C9.375 15.2332 8.98325 15.625 8.5 15.625C8.01675 15.625 7.625 15.2332 7.625 14.75V12.125C7.625 11.6418 8.01675 11.25 8.5 11.25C8.98325 11.25 9.375 11.6418 9.375 12.125ZM12.875 10.375V14.75C12.875 15.2332 12.4832 15.625 12 15.625C11.5168 15.625 11.125 15.2332 11.125 14.75V10.375C11.125 9.89175 11.5168 9.5 12 9.5C12.4832 9.5 12.875 9.89175 12.875 10.375ZM16.375 8.625V14.75C16.375 15.2332 15.9832 15.625 15.5 15.625C15.0168 15.625 14.625 15.2332 14.625 14.75V8.625C14.625 8.14175 15.0168 7.75 15.5 7.75C15.9832 7.75 16.375 8.14175 16.375 8.625Z" fill="#F9F9F9"/>
</svg>
