<svg width="30" height="25" viewBox="0 0 30 25" fill="none" xmlns="http://www.w3.org/2000/svg">
<path fill-rule="evenodd" clip-rule="evenodd" d="M29.0625 12.5312C29.06 9.9968 27.601 7.68942 25.3125 6.60039V6.4375C25.3103 3.95727 23.6838 1.7712 21.3089 1.05628C18.9339 0.341364 16.371 1.26634 15 3.3332C13.629 1.26634 11.0661 0.341364 8.69111 1.05628C6.31615 1.7712 4.68972 3.95727 4.6875 6.4375V6.60039C2.39682 7.68654 0.936621 9.99494 0.936621 12.5301C0.936621 15.0652 2.39682 17.3736 4.6875 18.4598V18.625C4.68972 21.1052 6.31615 23.2913 8.69111 24.0062C11.0661 24.7211 13.629 23.7962 15 21.7293C16.371 23.7962 18.9339 24.7211 21.3089 24.0062C23.6838 23.2913 25.3103 21.1052 25.3125 18.625V18.4598C27.6007 17.3715 29.0596 15.065 29.0625 12.5312ZM10.3125 22.375C8.39767 22.3747 6.79061 20.9319 6.58477 19.0281C6.88793 19.0714 7.19376 19.0933 7.5 19.0938H8.4375C8.95527 19.0938 9.375 18.674 9.375 18.1562C9.375 17.6385 8.95527 17.2188 8.4375 17.2188H7.5C5.21481 17.2214 3.26072 15.5759 2.87447 13.3236C2.48821 11.0712 3.78238 8.86864 5.93789 8.10977C6.31221 7.97724 6.56244 7.62326 6.5625 7.22617V6.4375C6.5625 4.36643 8.24143 2.6875 10.3125 2.6875C12.3836 2.6875 14.0625 4.36643 14.0625 6.4375V14.4367C13.033 13.5108 11.6971 12.999 10.3125 13C9.79473 13 9.375 13.4197 9.375 13.9375C9.375 14.4553 9.79473 14.875 10.3125 14.875C12.3836 14.875 14.0625 16.5539 14.0625 18.625C14.0625 20.6961 12.3836 22.375 10.3125 22.375ZM22.5 17.2188H21.5625C21.0447 17.2188 20.625 17.6385 20.625 18.1562C20.625 18.674 21.0447 19.0938 21.5625 19.0938H22.5C22.8062 19.0933 23.1121 19.0714 23.4152 19.0281C23.1982 21.0352 21.4313 22.5103 19.4177 22.3653C17.4042 22.2204 15.8667 20.5075 15.9394 18.49C16.012 16.4726 17.6687 14.8747 19.6875 14.875C20.2053 14.875 20.625 14.4553 20.625 13.9375C20.625 13.4197 20.2053 13 19.6875 13C18.3029 12.999 16.967 13.5108 15.9375 14.4367V6.4375C15.9375 4.36643 17.6164 2.6875 19.6875 2.6875C21.7586 2.6875 23.4375 4.36643 23.4375 6.4375V7.22617C23.4376 7.62326 23.6878 7.97724 24.0621 8.10977C26.2176 8.86864 27.5118 11.0712 27.1255 13.3236C26.7393 15.5759 24.7852 17.2214 22.5 17.2188ZM24.375 11.125C24.375 11.6428 23.9553 12.0625 23.4375 12.0625H22.9688C20.6388 12.0625 18.75 10.1737 18.75 7.84375V7.375C18.75 6.85723 19.1697 6.4375 19.6875 6.4375C20.2053 6.4375 20.625 6.85723 20.625 7.375V7.84375C20.625 9.13817 21.6743 10.1875 22.9688 10.1875H23.4375C23.9553 10.1875 24.375 10.6072 24.375 11.125ZM7.03125 12.0625H6.5625C6.04473 12.0625 5.625 11.6428 5.625 11.125C5.625 10.6072 6.04473 10.1875 6.5625 10.1875H7.03125C8.32567 10.1875 9.375 9.13817 9.375 7.84375V7.375C9.375 6.85723 9.79473 6.4375 10.3125 6.4375C10.8303 6.4375 11.25 6.85723 11.25 7.375V7.84375C11.25 10.1737 9.3612 12.0625 7.03125 12.0625Z" fill="#F9F9F9"/>
</svg>
