<svg width="24" height="24" viewBox="0 0 24 24" fill="none" xmlns="http://www.w3.org/2000/svg">
<path fill-rule="evenodd" clip-rule="evenodd" d="M23.7298 22.425L17.9587 16.6551C21.4335 12.4834 21.0125 6.31643 17.0029 2.65568C12.9934 -1.00507 6.81362 -0.864625 2.9745 2.9745C-0.864625 6.81362 -1.00507 12.9934 2.65568 17.0029C6.31643 21.0125 12.4834 21.4335 16.6551 17.9587L22.425 23.7298C22.7853 24.0901 23.3695 24.0901 23.7298 23.7298C24.0901 23.3695 24.0901 22.7853 23.7298 22.425ZM1.86964 10.1683C1.86964 5.58509 5.58509 1.86964 10.1683 1.86964C14.7516 1.86964 18.467 5.58509 18.467 10.1683C18.467 14.7516 14.7516 18.467 10.1683 18.467C5.5872 18.4619 1.87472 14.7495 1.86964 10.1683Z" fill="#F9F9F9"/>
</svg>
