<svg width="29" height="25" viewBox="0 0 29 25" fill="none" xmlns="http://www.w3.org/2000/svg">
<path fill-rule="evenodd" clip-rule="evenodd" d="M28.7188 23.4375C28.7188 24.0416 28.2291 24.5312 27.625 24.5312H1.375C0.770939 24.5312 0.28125 24.0416 0.28125 23.4375V1.5625C0.28125 0.958439 0.770939 0.46875 1.375 0.46875C1.97906 0.46875 2.46875 0.958439 2.46875 1.5625V14.4646L9.40449 8.39844C9.79347 8.05794 10.3677 8.03627 10.7812 8.34648L18.8217 14.3771L26.9045 7.30469C27.1933 7.01883 27.6167 6.91662 28.0041 7.03927C28.3915 7.16191 28.6789 7.48919 28.7506 7.88915C28.8222 8.28911 28.6662 8.69583 28.3455 8.94531L19.5955 16.6016C19.2065 16.9421 18.6323 16.9637 18.2188 16.6535L10.1783 10.6256L2.46875 17.3713V22.3438H27.625C28.2291 22.3438 28.7188 22.8334 28.7188 23.4375Z" fill="#F9F9F9"/>
</svg>
