<svg width="36" height="24" viewBox="0 0 36 24" fill="none" xmlns="http://www.w3.org/2000/svg">
<path fill-rule="evenodd" clip-rule="evenodd" d="M16.4883 16.2075C19.5841 14.1465 20.9654 10.3015 19.8887 6.74161C18.8121 3.18172 15.5316 0.746577 11.8125 0.746577C8.09337 0.746577 4.81286 3.18172 3.73625 6.74161C2.65965 10.3015 4.04089 14.1465 7.13672 16.2075C4.40929 17.2127 2.07999 19.0729 0.496406 21.5105C0.269898 21.8471 0.242226 22.2797 0.42399 22.6424C0.605754 23.0052 0.968785 23.242 1.37405 23.2621C1.77931 23.2822 2.164 23.0825 2.38078 22.7395C4.45614 19.5475 8.00515 17.6218 11.8125 17.6218C15.6198 17.6218 19.1689 19.5475 21.2442 22.7395C21.5876 23.2498 22.2771 23.3898 22.7922 23.0538C23.3074 22.7178 23.4572 22.0304 23.1286 21.5105C21.545 19.0729 19.2157 17.2127 16.4883 16.2075ZM5.625 9.1875C5.625 5.77024 8.39524 3 11.8125 3C15.2298 3 18 5.77024 18 9.1875C18 12.6048 15.2298 15.375 11.8125 15.375C8.39684 15.3711 5.62887 12.6032 5.625 9.1875ZM35.1759 23.0672C34.6556 23.4065 33.9587 23.2598 33.6192 22.7395C31.5462 19.5454 27.9954 17.6199 24.1875 17.625C23.5662 17.625 23.0625 17.1213 23.0625 16.5C23.0625 15.8787 23.5662 15.375 24.1875 15.375C26.6795 15.3727 28.9268 13.8756 29.8892 11.577C30.8515 9.27832 30.341 6.62669 28.594 4.84967C26.8469 3.07265 24.2044 2.51708 21.8897 3.44016C21.514 3.60257 21.0797 3.54812 20.7557 3.29797C20.4318 3.04782 20.2692 2.64145 20.3313 2.23688C20.3934 1.8323 20.6703 1.49337 21.0544 1.35187C25.0663 -0.248149 29.6388 1.44001 31.6485 5.26324C33.6582 9.08647 32.4561 13.8101 28.8633 16.2075C31.5907 17.2127 33.92 19.0729 35.5036 21.5105C35.8429 22.0308 35.6962 22.7278 35.1759 23.0672Z" fill="#F9F9F9"/>
</svg>
